<?xml version="1.0" encoding="utf-8"?>
<!-- Generator: Adobe Illustrator 26.1.0, SVG Export Plug-In . SVG Version: 6.00 Build 0)  -->
<svg version="1.1" id="a" xmlns="http://www.w3.org/2000/svg" xmlns:xlink="http://www.w3.org/1999/xlink" x="0px" y="0px"
	 viewBox="0 0 24.3 24.3" style="enable-background:new 0 0 24.3 24.3;" xml:space="preserve">
<style type="text/css">
	.st0{stroke:#FFFFFF;stroke-width:0.3;stroke-miterlimit:10;}
</style>
<path class="st0" d="M17,7.2c-3.3,0-6.5,0-9.8,0c-1,0-1.7,0.7-1.7,1.7c0,2.2,0,4.3,0,6.5c0,0.1,0,0.2,0,0.4c0.2,0.8,0.8,1.4,1.7,1.4
	c1.6,0,3.3,0,4.9,0s3.3,0,4.9,0c1,0,1.7-0.7,1.7-1.7c0-2.2,0-4.4,0-6.5C18.8,7.9,18,7.2,17,7.2L17,7.2z M7.3,8c1.2,0,2.3,0,3.5,0
	c2.1,0,4.1,0,6.2,0c0.2,0,0.3,0,0.5,0.1c-1.8,1.6-3.6,3.2-5.3,4.8c-1.8-1.6-3.6-3.2-5.3-4.8C6.9,8,7.1,8,7.3,8L7.3,8z M17.2,16.2
	c-0.1,0-0.1,0-0.2,0c-3.2,0-6.5,0-9.7,0c-0.3,0-0.5-0.1-0.7-0.3c-0.2-0.2-0.2-0.4-0.2-0.6c0-1.1,0-2.1,0-3.2V8.8
	c1.9,1.7,3.8,3.4,5.8,5.2c1.9-1.7,3.8-3.4,5.8-5.1c0,0.1,0,0.1,0,0.1c0,2.2,0,4.3,0,6.5C17.9,15.9,17.6,16.2,17.2,16.2L17.2,16.2z"
	/>
</svg>
