<?xml version="1.0" encoding="utf-8"?>
<!-- Generator: Adobe Illustrator 26.1.0, SVG Export Plug-In . SVG Version: 6.00 Build 0)  -->
<svg version="1.1" id="a" xmlns="http://www.w3.org/2000/svg" xmlns:xlink="http://www.w3.org/1999/xlink" x="0px" y="0px"
	 viewBox="0 0 23.9 23.9" style="enable-background:new 0 0 23.9 23.9;" xml:space="preserve">
<path d="M11.8,15.7C11.8,15.7,11.8,15.7,11.8,15.7c-0.3,0.3-0.5,0.5-0.7,0.7c-0.2,0.2-0.5,0.5-0.7,0.7c-0.1,0.1-0.2,0.2-0.4,0.2
	c0,0-0.1,0-0.1,0c0-0.1,0-0.2,0-0.4c0-0.3,0-0.6,0.1-0.9c0-0.2,0-0.5,0.1-0.7c0-0.1,0-0.3,0-0.5c0-0.1,0-0.3,0-0.4
	c0-0.1,0-0.1,0.1-0.2c0.3-0.2,0.5-0.5,0.8-0.7c0.2-0.2,0.4-0.3,0.5-0.5c0.3-0.2,0.5-0.5,0.8-0.7c0.2-0.2,0.4-0.3,0.5-0.5
	c0.3-0.2,0.6-0.5,0.8-0.7c0.2-0.2,0.4-0.3,0.5-0.5c0.3-0.2,0.6-0.5,0.8-0.7c0.2-0.1,0.3-0.3,0.5-0.4c0,0,0.1-0.1,0.1-0.1
	c0-0.1,0-0.1-0.1-0.1c-0.1,0-0.1,0-0.2,0c-0.1,0-0.2,0.1-0.2,0.1c-0.6,0.4-1.2,0.8-1.9,1.2c-0.6,0.4-1.2,0.8-1.9,1.2
	c-0.6,0.4-1.1,0.7-1.7,1.1c-0.4,0.2-0.8,0.5-1.2,0.8c-0.1,0-0.1,0-0.2,0c-0.3-0.1-0.5-0.2-0.8-0.3c-0.6-0.2-1.3-0.4-1.9-0.6
	c-0.1,0-0.2-0.1-0.3-0.1c0,0-0.1-0.1-0.1-0.1C5,12.3,5,12.2,5,12.1c0-0.1,0.1-0.1,0.2-0.2c0.1-0.1,0.3-0.2,0.4-0.2
	c0.8-0.3,1.6-0.6,2.4-0.9c1.1-0.4,2.1-0.8,3.2-1.2c0.8-0.3,1.6-0.6,2.4-0.9c0.9-0.4,1.9-0.7,2.8-1.1c0.2-0.1,0.3-0.1,0.5-0.2
	c0.1-0.1,0.3-0.1,0.5-0.1s0.3,0.1,0.4,0.3c0.1,0.2,0.1,0.3,0.1,0.5c0,0.3-0.1,0.5-0.1,0.8c-0.3,1.3-0.6,2.6-0.8,3.9
	c-0.3,1.3-0.6,2.6-0.8,3.9c-0.1,0.2-0.1,0.4-0.1,0.6c0,0.1-0.1,0.2-0.1,0.3C15.5,17.9,15.3,18,15,18c-0.1,0-0.2-0.1-0.4-0.2
	c-0.3-0.2-0.5-0.4-0.8-0.6C13.2,16.7,12.5,16.2,11.8,15.7C11.8,15.7,11.8,15.7,11.8,15.7L11.8,15.7z"/>
</svg>
