<?xml version="1.0" encoding="utf-8"?>
<!-- Generator: Adobe Illustrator 26.1.0, SVG Export Plug-In . SVG Version: 6.00 Build 0)  -->
<svg version="1.1" id="a" xmlns="http://www.w3.org/2000/svg" xmlns:xlink="http://www.w3.org/1999/xlink" x="0px" y="0px"
	 viewBox="0 0 26.7 26.1" style="enable-background:new 0 0 26.7 26.1;" xml:space="preserve">
<style type="text/css">
	.st0{fill-rule:evenodd;clip-rule:evenodd;fill:#010101;stroke:#FFFFFF;stroke-width:0.75;stroke-miterlimit:10;}
</style>
<path class="st0" d="M16.3,15.6l-1.5,1.1c-0.7-0.4-1.5-1-2.3-1.8s-1.4-1.7-1.9-2.4l1-0.8c0.4-0.4,0.5-0.9,0.3-1.4l-1.2-2.3
	c-0.2-0.3-0.5-0.5-0.8-0.6c-0.4-0.1-0.7,0-1,0.3L8.5,7.9c-0.9,0.8-1.4,2-1,3.3c0.4,1.3,1.4,3.4,3.4,5.4c2.1,2.1,4.2,2.9,5.5,3.2
	c1,0.3,2-0.1,2.6-0.6l0.7-0.6c0.3-0.2,0.5-0.6,0.4-1c0-0.4-0.2-0.7-0.6-0.9l-1.9-1.2C17.2,15.3,16.7,15.3,16.3,15.6z"/>
</svg>
